<?xml version="1.0" standalone="no"?>
<!DOCTYPE svg PUBLIC "-//W3C//DTD SVG 20010904//EN"
 "http://www.w3.org/TR/2001/REC-SVG-20010904/DTD/svg10.dtd">
<svg version="1.0" xmlns="http://www.w3.org/2000/svg"
 width="900.000000pt" height="500.000000pt" viewBox="0 0 900.000000 500.000000"
 preserveAspectRatio="xMidYMid meet">

<g transform="translate(0.000000,500.000000) scale(0.100000,-0.100000)"
fill="#000000" stroke="none">
<path d="M6865 4198 c-191 -9 -238 -15 -230 -29 4 -5 -1 -12 -11 -16 -14 -5
-15 -16 -9 -87 4 -45 11 -234 15 -421 16 -804 18 -1185 10 -1580 -11 -492 -20
-826 -24 -874 -1 -19 4 -41 13 -52 15 -17 34 -19 235 -20 244 -2 246 -1 246
67 0 115 26 125 148 57 48 -27 98 -54 112 -60 14 -6 36 -15 50 -22 69 -31 184
-60 265 -66 143 -11 335 17 440 65 11 5 41 18 67 28 51 22 148 85 191 126 15
14 31 26 34 26 19 0 223 243 223 265 0 4 9 20 21 36 11 16 22 36 23 43 1 8 7
21 14 29 26 30 77 215 92 330 22 168 0 411 -45 512 -7 17 -17 41 -21 55 -6 24
-43 102 -77 165 -9 17 -22 30 -29 30 -7 1 -12 7 -10 14 1 7 -10 30 -25 50 -37
50 -192 203 -228 226 -16 11 -34 25 -38 32 -4 7 -17 13 -27 13 -11 0 -20 5
-20 10 0 6 -11 15 -24 20 -14 5 -53 22 -88 38 -179 83 -461 103 -672 48 -52
-13 -136 -45 -188 -69 -129 -62 -132 -63 -152 -31 -16 23 -17 47 -12 217 3
106 9 331 12 500 5 290 4 309 -13 322 -19 14 -16 14 -268 3z m989 -1357 c105
-31 146 -46 186 -69 60 -34 180 -155 216 -220 16 -29 33 -52 37 -52 5 0 6 -4
3 -8 -2 -4 7 -41 20 -82 23 -66 26 -91 25 -214 -1 -96 -6 -155 -17 -195 -47
-163 -135 -292 -248 -363 -28 -18 -53 -35 -56 -38 -11 -11 -118 -50 -170 -61
-32 -7 -87 -9 -135 -6 -159 13 -273 67 -385 187 -54 57 -70 82 -116 180 -49
103 -66 191 -60 315 2 55 5 114 5 132 0 17 5 34 11 38 5 3 10 13 10 21 0 23
82 186 110 218 56 64 85 90 138 127 59 42 148 79 187 79 14 0 25 5 25 10 0 13
172 13 214 1z"/>
<path d="M730 3884 c-10 -11 -13 -92 -11 -342 2 -315 1 -328 -18 -346 -13 -12
-32 -17 -58 -15 -21 1 -81 2 -134 1 l-97 -2 -16 -35 c-22 -45 -21 -234 1 -282
l15 -33 138 0 c123 0 139 -2 155 -20 16 -18 17 -43 11 -392 -4 -205 -9 -458
-12 -563 -6 -240 11 -351 73 -468 35 -67 32 -64 44 -47 8 11 9 9 4 -8 -6 -19
4 -33 55 -82 90 -86 184 -127 366 -159 74 -13 179 -14 149 -1 -14 6 -4 9 35 8
57 -1 120 8 155 22 11 4 40 14 65 21 25 7 70 25 100 40 30 15 63 29 73 33 23
7 47 58 29 64 -6 2 -12 11 -12 20 0 18 -23 89 -39 120 -4 9 -18 38 -30 65 -24
54 -35 57 -135 31 -83 -22 -230 -22 -278 -1 -38 16 -134 104 -125 114 3 2 -1
19 -8 37 -20 48 -24 1108 -4 1132 12 15 39 16 285 9 149 -4 281 -4 293 0 21 6
21 11 21 206 0 131 -3 198 -10 194 -5 -3 -10 -2 -10 3 0 11 -157 10 -391 -3
l-155 -8 -27 27 c-31 31 -30 29 -17 76 6 19 10 89 10 155 0 66 5 175 11 243
11 122 11 123 -12 143 -12 10 -31 19 -43 20 -23 1 -32 1 -206 18 -234 22 -227
21 -240 5z"/>
<path d="M2775 3266 c-38 -8 -99 -24 -135 -36 -63 -22 -210 -95 -220 -109 -3
-4 -25 -21 -50 -38 -60 -41 -196 -184 -248 -260 -70 -103 -161 -311 -146 -335
3 -5 1 -14 -4 -21 -15 -20 -31 -125 -37 -250 -4 -95 -1 -140 15 -225 12 -59
25 -116 29 -127 5 -11 14 -40 21 -65 18 -64 58 -147 97 -203 18 -26 33 -50 33
-53 0 -6 61 -83 90 -114 8 -9 24 -27 35 -41 12 -13 36 -35 54 -49 18 -14 45
-35 59 -48 14 -12 51 -37 81 -54 31 -17 63 -36 71 -43 24 -19 153 -65 211 -76
186 -34 244 -39 344 -29 102 11 240 43 285 66 14 7 60 29 103 50 43 21 94 53
114 71 19 18 38 33 42 33 13 1 149 140 201 206 8 10 24 36 35 57 11 20 22 37
26 37 10 0 76 151 104 240 14 47 29 117 32 155 9 108 4 105 143 105 l120 0 0
-29 c0 -46 51 -273 70 -310 4 -9 23 -47 41 -86 33 -68 104 -179 137 -214 10
-10 39 -41 66 -70 26 -28 68 -66 92 -83 24 -17 44 -35 44 -40 0 -4 7 -8 15 -8
9 0 18 -6 21 -13 2 -7 39 -30 82 -51 42 -21 85 -43 96 -48 10 -5 26 -11 35
-14 9 -2 41 -11 71 -19 92 -27 268 -46 350 -39 123 10 338 69 384 105 13 10
27 19 31 19 3 0 37 20 75 44 91 59 235 203 294 294 59 91 116 201 116 225 0 9
4 17 8 17 10 0 28 63 48 170 21 105 23 346 5 445 -14 74 -40 162 -64 217 -8
18 -21 49 -28 68 -12 32 -49 89 -134 208 -16 23 -38 44 -47 48 -10 3 -18 11
-18 17 0 7 -18 28 -41 47 -22 19 -54 47 -71 62 -17 15 -40 30 -50 34 -10 3
-18 9 -18 13 0 11 -136 81 -155 81 -8 0 -15 3 -15 8 0 11 -133 50 -214 62 -94
15 -295 11 -386 -7 -125 -24 -236 -65 -284 -103 -10 -8 -19 -13 -20 -10 -1 3
-37 -19 -80 -48 -64 -45 -76 -57 -71 -75 2 -12 2 -16 -1 -9 -9 20 -20 14 -68
-35 -79 -84 -96 -106 -152 -196 -71 -114 -126 -252 -145 -362 -4 -27 -12 -68
-16 -90 l-8 -40 -100 -3 c-133 -4 -143 -1 -150 46 -20 128 -54 260 -73 286 -5
6 -15 27 -22 46 -23 59 -107 193 -150 238 -22 24 -40 46 -40 48 0 2 -13 16
-29 31 -59 57 -91 83 -101 83 -5 0 -10 4 -10 9 0 10 -74 58 -145 94 -158 79
-238 98 -445 103 -113 2 -187 -1 -235 -10z m276 -427 c30 -5 67 -12 82 -14 35
-5 148 -57 189 -87 77 -58 153 -155 207 -263 27 -55 31 -68 34 -135 l2 -45
-216 0 -216 0 -42 29 c-55 38 -135 47 -177 20 -64 -41 -94 -84 -94 -135 0 -67
56 -147 118 -167 59 -20 181 17 182 55 0 18 427 23 442 6 15 -19 1 -109 -28
-178 -14 -33 -26 -65 -27 -71 -4 -16 -78 -116 -111 -149 -60 -59 -122 -102
-186 -128 -36 -15 -71 -27 -78 -27 -7 0 -10 -5 -6 -11 5 -8 -32 -10 -132 -7
-124 4 -147 7 -208 32 -98 41 -181 101 -241 176 -52 64 -105 154 -105 177 0 6
-4 13 -8 15 -5 2 -18 46 -31 100 -21 90 -22 105 -12 220 11 126 23 172 63 249
48 95 156 220 213 249 17 8 41 22 55 32 28 19 164 56 225 61 22 2 43 4 46 5 4
1 31 -3 60 -9z m2344 -4 c157 -10 276 -75 383 -210 91 -113 125 -194 143 -337
4 -38 10 -71 13 -76 8 -14 -21 -185 -44 -254 -35 -109 -132 -254 -205 -305
-124 -89 -190 -113 -323 -120 -80 -4 -118 -2 -170 12 -88 23 -173 68 -230 122
-25 24 -48 43 -51 43 -9 0 -91 124 -91 138 0 6 -3 12 -8 12 -23 0 -87 217 -70
237 8 10 64 13 228 13 l217 0 26 -30 c80 -89 241 -45 278 78 10 35 9 46 -5 75
-9 19 -16 39 -16 44 0 5 -14 23 -31 41 -54 55 -153 56 -221 2 l-37 -30 -205 0
c-112 0 -211 3 -220 6 -22 8 -20 28 8 118 27 85 75 174 115 215 15 15 25 33
23 40 -2 6 0 10 5 9 5 -2 29 14 53 35 57 49 172 105 238 116 29 4 55 11 58 14
4 3 18 4 33 2 14 -2 62 -7 106 -10z"/>
</g>
</svg>
